<svg width="32" height="34" viewBox="0 0 32 34" fill="none" xmlns="http://www.w3.org/2000/svg">
<path d="M17.5835 1.16663H18.0153C23.1789 1.16663 25.7607 1.16663 27.5536 2.42986C28.0673 2.7918 28.5234 3.22104 28.908 3.70453C30.2502 5.39202 30.2502 7.82194 30.2502 12.6818V16.7121C30.2502 21.4038 30.2502 23.7496 29.5077 25.6232C28.314 28.6352 25.7897 31.0111 22.5894 32.1345C20.5988 32.8333 18.1063 32.8333 13.1214 32.8333C10.2729 32.8333 8.84859 32.8333 7.71106 32.434C5.88233 31.792 4.43985 30.4344 3.75777 28.7132C3.3335 27.6426 3.3335 26.3021 3.3335 23.6212V17" stroke="#BCCEE0" stroke-width="2" stroke-linecap="round" stroke-linejoin="round"/>
<path d="M30.2498 17C30.2498 19.9148 27.8869 22.2778 24.9721 22.2778C23.9179 22.2778 22.6751 22.0931 21.6502 22.3677C20.7395 22.6117 20.0282 23.323 19.7842 24.2337C19.5096 25.2586 19.6943 26.5014 19.6943 27.5556C19.6943 30.4704 17.3313 32.8333 14.4165 32.8333" stroke="#BCCEE0" stroke-width="2" stroke-linecap="round" stroke-linejoin="round"/>
<path d="M14.4167 7.49996L1.75 7.49996M8.08333 1.16663V13.8333" stroke="#BCCEE0" stroke-width="2" stroke-linecap="round"/>
</svg>
